<svg width="18" height="18" viewBox="0 0 18 18" fill="none" xmlns="http://www.w3.org/2000/svg">
<path fill-rule="evenodd" clip-rule="evenodd" d="M9 5.00005C9.55228 5.00005 10 5.44776 10 6.00005V10C10 10.5523 9.55228 11 9 11C8.44771 11 8 10.5523 8 10V6.00005C8 5.44776 8.44771 5.00005 9 5.00005Z" fill="black"/>
<path d="M10 13C10 13.5523 9.55228 14 9 14C8.44771 14 8 13.5523 8 13C8 12.4478 8.44771 12 9 12C9.55228 12 10 12.4478 10 13Z" fill="black"/>
<path fill-rule="evenodd" clip-rule="evenodd" d="M4.00385 18H13.9961C16.9782 18 18.9117 14.8544 17.565 12.1937L12.5689 2.32255C11.0885 -0.602301 6.91147 -0.602316 5.43109 2.32255L0.434952 12.1937C-0.911726 14.8544 1.02175 18 4.00385 18ZM7.21554 3.22573L2.2194 13.0968C1.54606 14.4272 2.51281 16 4.00385 16H13.9961C15.4872 16 16.4539 14.4272 15.7806 13.0968L10.7845 3.22573C10.0443 1.7633 7.95573 1.7633 7.21554 3.22573Z" fill="black"/>
</svg>
