<svg width="20" height="20" viewBox="0 0 20 20" fill="none" xmlns="http://www.w3.org/2000/svg">
<path fill-rule="evenodd" clip-rule="evenodd" d="M9.9999 5.99999C10.5522 5.99999 10.9999 6.4477 10.9999 6.99999V11C10.9999 11.5523 10.5522 12 9.9999 12C9.44762 12 8.9999 11.5523 8.9999 11V6.99999C8.9999 6.4477 9.44762 5.99999 9.9999 5.99999Z" fill="white"/>
<path d="M10.9999 14C10.9999 14.5523 10.5522 15 9.9999 15C9.44762 15 8.9999 14.5523 8.9999 14C8.9999 13.4477 9.44762 13 9.9999 13C10.5522 13 10.9999 13.4477 10.9999 14Z" fill="white"/>
<path fill-rule="evenodd" clip-rule="evenodd" d="M5.00376 19H14.996C17.9781 19 19.9116 15.8543 18.565 13.1936L13.5688 3.32249C12.0884 0.397638 7.91138 0.397623 6.431 3.32249L1.43486 13.1936C0.0881822 15.8543 2.02166 19 5.00376 19ZM8.21545 4.22567L3.21931 14.0968C2.54597 15.4271 3.51272 17 5.00376 17H14.996C16.4871 17 17.4538 15.4271 16.7805 14.0968L11.7844 4.22567C11.0442 2.76324 8.95564 2.76324 8.21545 4.22567Z" fill="#EECD00"/>
</svg>
