<svg width="16" height="20" viewBox="0 0 16 20" fill="none" xmlns="http://www.w3.org/2000/svg">
<path fill-rule="evenodd" clip-rule="evenodd" d="M5.5 10H10.5C11.8807 10 13 11.1193 13 12.5V14.5C13 15.8807 11.8807 17 10.5 17H5.5C4.11929 17 3 15.8807 3 14.5V12.5C3 11.1193 4.11929 10 5.5 10ZM5.5 12C5.22386 12 5 12.2239 5 12.5V14.5C5 14.7761 5.22386 15 5.5 15H10.5C10.7761 15 11 14.7761 11 14.5V12.5C11 12.2239 10.7761 12 10.5 12H5.5Z" fill="#BBDD00"/>
<path fill-rule="evenodd" clip-rule="evenodd" d="M8.6 0H7.4C5.1812 0 3.34598 1.64233 3.04367 3.77768C1.22621 4.80875 0 6.76117 0 9V17C0 18.6569 1.34314 20 3 20H13C14.6569 20 16 18.6569 16 17V9C16 6.76117 14.7738 4.80875 12.9563 3.77768C12.654 1.64233 10.8188 0 8.6 0ZM5.43157 3.02657C5.86542 2.40593 6.5853 2 7.4 2H8.6C9.4147 2 10.1346 2.40594 10.5684 3.02658C10.3813 3.00899 10.1917 3 10 3H6C5.80829 3 5.61868 3.00899 5.43157 3.02657ZM6 5C3.79086 5 2 6.79086 2 9V17C2 17.5523 2.44772 18 3 18H13C13.5523 18 14 17.5523 14 17V9C14 6.79086 12.2091 5 10 5H6Z" fill="#BBDD00"/>
</svg>
