<svg width="18" height="18" viewBox="0 0 18 18" fill="none" xmlns="http://www.w3.org/2000/svg">
<path fill-rule="evenodd" clip-rule="evenodd" d="M10.5 13C13.5376 13 16 10.5376 16 7.5C16 4.46243 13.5376 2 10.5 2C7.46243 2 5 4.46243 5 7.5C5 10.5376 7.46243 13 10.5 13ZM10.5 15C14.6421 15 18 11.6421 18 7.5C18 3.35786 14.6421 0 10.5 0C6.35786 0 3 3.35786 3 7.5C3 9.21054 3.57264 10.7873 4.53666 12.0491C4.94304 12.581 5.41897 13.057 5.95088 13.4633C7.21268 14.4274 8.78946 15 10.5 15Z" fill="white"/>
<path d="M1.70711 17.7071L5.95088 13.4633C5.41897 13.057 4.94304 12.581 4.53666 12.0491L0.292893 16.2929C-0.0976311 16.6834 -0.0976311 17.3166 0.292893 17.7071C0.683417 18.0976 1.31658 18.0976 1.70711 17.7071Z" fill="white"/>
</svg>
