<svg width="16" height="20" viewBox="0 0 16 20" fill="none" xmlns="http://www.w3.org/2000/svg">
<path fill-rule="evenodd" clip-rule="evenodd" d="M15.8414 16.138L15.074 13.5799C14.473 11.5764 12.4033 10.3992 10.3741 10.9065C8.81537 11.2962 7.18469 11.2962 5.62596 10.9065C3.59672 10.3992 1.5271 11.5764 0.926055 13.5799L0.15864 16.138C-0.418811 18.0628 1.02253 20 3.03212 20H12.9679C14.9775 20 16.4189 18.0628 15.8414 16.138ZM2.84171 14.1546L2.07429 16.7127C1.88181 17.3543 2.36226 18 3.03212 18H12.9679C13.6378 18 14.1182 17.3543 13.9258 16.7127L13.1583 14.1546C12.8643 13.1745 11.8519 12.5986 10.8592 12.8468C8.98196 13.3161 7.01809 13.3161 5.14089 12.8468C4.14819 12.5986 3.13574 13.1745 2.84171 14.1546Z" fill="#BBDD00"/>
<path fill-rule="evenodd" clip-rule="evenodd" d="M13 5C13 7.76142 10.7614 10 8.00003 10C5.2386 10 3.00003 7.76142 3.00003 5C3.00003 2.23858 5.2386 0 8.00003 0C10.7614 0 13 2.23858 13 5ZM8.00003 8C9.65688 8 11 6.65685 11 5C11 3.34315 9.65688 2 8.00003 2C6.34317 2 5.00003 3.34315 5.00003 5C5.00003 6.65685 6.34317 8 8.00003 8Z" fill="#BBDD00"/>
</svg>
