<svg width="16" height="16" viewBox="0 0 16 16" fill="none" xmlns="http://www.w3.org/2000/svg">
<path d="M0 3.76562V7.53125L0.234375 8L0.46875 8.46875V9.76562V11.0625L0.234375 11.5312L0 12V14V16H4H8L8.41562 15.7938L8.82812 15.5875L9.24375 15.7938L9.65625 16H12.8281H16V12.8281V9.65625L15.7937 9.24063L15.5875 8.82812L15.7937 8.4125L16 8V4V0H15H14L13.5938 0.203125L13.1875 0.40625L12.7812 0.203125L12.375 0H10.4219H8.46875L8 0.234375L7.53125 0.46875H6.23438H4.9375L4.46875 0.234375L4 0H2H0V3.76562ZM8.41562 6.31563C10.9812 8.24375 13.1031 9.84375 13.1313 9.87187C13.1813 9.91875 13.1687 10.0219 12.95 11.5469C12.825 12.4375 12.7188 13.1719 12.7188 13.1781C12.7188 13.1844 12.2937 13.1844 11.775 13.1812L10.8313 13.1719L10.2312 12.4688L9.62813 11.7656L9.50625 11.2563C9.4375 10.975 9.37813 10.7438 9.37187 10.7375C9.36562 10.7312 9.14687 10.6375 8.88437 10.5281L8.40938 10.3281L5.60625 7.03438L2.80625 3.74062L3.26875 3.27812C3.525 3.02187 3.7375 2.8125 3.74375 2.8125C3.74688 2.8125 5.85 4.39062 8.41562 6.31563ZM12.4937 3.50938L13.1875 4.20312L13.1812 5.60313L13.1719 7L11.0781 4.90625L8.98438 2.8125H10.3906H11.7969L12.4937 3.50938ZM5.63438 13.1812L4.23438 13.1875L3.525 12.4781L2.8125 11.7656V10.3594V8.95625L4.92188 11.0625L7.03125 13.1719L5.63438 13.1812Z" fill="#BBDD00"/>
</svg>
