<svg width="18" height="20" viewBox="0 0 18 20" fill="none" xmlns="http://www.w3.org/2000/svg">
<path d="M14.8164 2.47C14.7363 2.47 14.6563 2.45 14.5863 2.41C12.666 1.42 11.0057 1 9.0153 1C7.03493 1 5.15459 1.47 3.44428 2.41C3.20424 2.54 2.90418 2.45 2.76416 2.21C2.70178 2.09305 2.68779 1.95629 2.72519 1.82913C2.7626 1.70197 2.84842 1.59456 2.96419 1.53C4.82453 0.52 6.8649 0 9.0153 0C11.1457 0 13.006 0.47 15.0464 1.52C15.2964 1.65 15.3865 1.95 15.2564 2.19C15.2169 2.27336 15.1546 2.34387 15.0767 2.3934C14.9989 2.44294 14.9086 2.46949 14.8164 2.47ZM0.503743 7.72C0.411548 7.72086 0.320917 7.69617 0.241902 7.64866C0.162887 7.60116 0.0985771 7.5327 0.0561058 7.45088C0.0136346 7.36906 -0.00533802 7.27708 0.00129242 7.18514C0.00792287 7.09319 0.039897 7.00488 0.0936686 6.93C1.08385 5.53 2.34408 4.43 3.84435 3.66C6.98492 2.04 11.0057 2.03 14.1562 3.65C15.6565 4.42 16.9167 5.51 17.9069 6.9C17.9453 6.95374 17.9726 7.01455 17.9874 7.07891C18.0021 7.14328 18.004 7.20992 17.9928 7.27501C17.9817 7.34009 17.9577 7.40232 17.9224 7.4581C17.887 7.51388 17.841 7.56211 17.7869 7.6C17.5569 7.76 17.2468 7.71 17.0868 7.48C16.2109 6.24038 15.0474 5.23156 13.6961 4.54C10.8256 3.07 7.15496 3.07 4.29443 4.55C2.93419 5.25 1.79398 6.25 0.893814 7.51C0.8138 7.65 0.663773 7.72 0.503743 7.72ZM6.75488 19.79C6.68929 19.7908 6.62427 19.7779 6.56398 19.752C6.50369 19.7262 6.44947 19.688 6.40482 19.64C5.53466 18.77 5.06458 18.21 4.39445 17C3.70433 15.77 3.34426 14.27 3.34426 12.66C3.34426 9.69 5.88472 7.27 9.00529 7.27C12.1259 7.27 14.6663 9.69 14.6663 12.66C14.6663 12.94 14.4463 13.16 14.1662 13.16C13.8862 13.16 13.6661 12.94 13.6661 12.66C13.6661 10.24 11.5758 8.27 9.00529 8.27C6.43482 8.27 4.34444 10.24 4.34444 12.66C4.34444 14.1 4.6645 15.43 5.27461 16.51C5.91473 17.66 6.35481 18.15 7.12495 18.93C7.31499 19.13 7.31499 19.44 7.12495 19.64C7.01493 19.74 6.88491 19.79 6.75488 19.79ZM13.9262 17.94C12.736 17.94 11.6858 17.64 10.8256 17.05C9.33535 16.04 8.44519 14.4 8.44519 12.66C8.44519 12.38 8.66523 12.16 8.94528 12.16C9.22533 12.16 9.44537 12.38 9.44537 12.66C9.44537 14.07 10.1655 15.4 11.3857 16.22C12.0959 16.7 12.926 16.93 13.9262 16.93C14.1662 16.93 14.5663 16.9 14.9664 16.83C15.2364 16.78 15.4965 16.96 15.5465 17.24C15.5965 17.51 15.4165 17.77 15.1364 17.82C14.5663 17.93 14.0662 17.94 13.9262 17.94ZM11.9158 20C11.8758 20 11.8258 19.99 11.7858 19.98C10.1955 19.54 9.15532 18.95 8.06512 17.88C7.37428 17.198 6.82647 16.385 6.45379 15.4887C6.08111 14.5923 5.89105 13.6307 5.89473 12.66C5.89473 11.04 7.27498 9.72 8.97529 9.72C10.6756 9.72 12.0559 11.04 12.0559 12.66C12.0559 13.73 12.986 14.6 14.1362 14.6C15.2864 14.6 16.2166 13.73 16.2166 12.66C16.2166 8.89 12.966 5.83 8.96529 5.83C6.12477 5.83 3.52429 7.41 2.35408 9.86C1.96401 10.67 1.76397 11.62 1.76397 12.66C1.76397 13.44 1.83399 14.67 2.4341 16.27C2.53411 16.53 2.40409 16.82 2.14404 16.91C1.884 17.01 1.59394 16.87 1.50393 16.62C1.02198 15.3553 0.774558 14.0134 0.773793 12.66C0.773793 11.46 1.00383 10.37 1.45392 9.42C2.78416 6.63 5.7347 4.82 8.96529 4.82C13.5161 4.82 17.2168 8.33 17.2168 12.65C17.2168 14.27 15.8365 15.59 14.1362 15.59C12.4359 15.59 11.0557 14.27 11.0557 12.65C11.0557 11.58 10.1255 10.71 8.97529 10.71C7.82508 10.71 6.89491 11.58 6.89491 12.65C6.89491 14.36 7.55503 15.96 8.76525 17.16C9.71542 18.1 10.6256 18.62 12.0358 19.01C12.3059 19.08 12.4559 19.36 12.3859 19.62C12.3359 19.85 12.1259 20 11.9158 20Z" fill="#BBDD00"/>
</svg>
