<svg width="128" height="128" viewBox="0 0 128 128" fill="none" xmlns="http://www.w3.org/2000/svg">
<g clip-path="url(#clip0_79_3524)">
<path d="M75.4472 66.2949C79.2378 62.5042 79.2378 56.3584 75.4472 52.5677C71.6565 48.7771 65.5107 48.7771 61.72 52.5677C57.9293 56.3584 57.9293 62.5042 61.72 66.2949C65.5107 70.0855 71.6565 70.0855 75.4472 66.2949Z" fill="#7540F0"/>
<path d="M57.1694 84.5714C60.96 80.7808 60.96 74.6349 57.1694 70.8443C53.3787 67.0536 47.2329 67.0536 43.4422 70.8443L6.87664 107.41C3.08599 111.2 3.08599 117.346 6.87664 121.137C10.6673 124.928 16.8132 124.928 20.6038 121.137L57.1694 84.5714Z" fill="#7540F0"/>
<path d="M73.1306 4.56533C73.1306 2.04397 71.0867 0 68.5653 0C66.0439 0 64 2.04397 64 4.56533V13.696C64 16.2174 66.0439 18.2613 68.5653 18.2613C71.0867 18.2613 73.1306 16.2174 73.1306 13.696V4.56533Z" fill="#7540F0"/>
<path d="M97.6895 23.876C95.9066 25.6588 95.9066 28.5494 97.6895 30.3323C99.4724 32.1151 102.363 32.1151 104.146 30.3323L110.602 23.876C112.385 22.0931 112.385 19.2025 110.602 17.4197C108.819 15.6368 105.929 15.6368 104.146 17.4197L97.6895 23.876Z" fill="#7540F0"/>
<path d="M32.9699 17.4185C31.187 15.6357 28.2964 15.6357 26.5136 17.4185C24.7307 19.2014 24.7307 22.092 26.5136 23.8748L32.9699 30.3311C34.7527 32.114 37.6433 32.114 39.4262 30.3311C41.209 28.5483 41.209 25.6577 39.4262 23.8748L32.9699 17.4185Z" fill="#7540F0"/>
<path d="M104.113 88.5308C102.33 86.748 99.4395 86.748 97.6567 88.5308C95.8738 90.3137 95.8738 93.2043 97.6567 94.9871L104.113 101.443C105.896 103.226 108.786 103.226 110.569 101.443C112.352 99.6606 112.352 96.77 110.569 94.9871L104.113 88.5308Z" fill="#7540F0"/>
<path d="M128 59.392C128 56.8706 125.956 54.8267 123.435 54.8267H114.304C111.783 54.8267 109.739 56.8706 109.739 59.392C109.739 61.9134 111.783 63.9573 114.304 63.9573H123.435C125.956 63.9573 128 61.9134 128 59.392Z" fill="#7540F0"/>
</g>
<defs>
<clipPath id="clip0_79_3524">
<rect width="128" height="128" fill="white"/>
</clipPath>
</defs>
</svg>
