<svg width="128" height="128" viewBox="0 0 128 128" fill="none" xmlns="http://www.w3.org/2000/svg">
<path d="M58.1547 110.528V17.4293C58.1547 11.0081 52.9493 5.80267 46.528 5.80267C40.1068 5.80267 34.9014 11.0081 34.9014 17.4293V110.528C34.9014 116.949 40.1068 122.155 46.528 122.155C52.9493 122.155 58.1547 116.949 58.1547 110.528Z" fill="#7540F0"/>
<path d="M23.2533 110.528V98.88C23.2533 92.4588 18.0479 87.2534 11.6267 87.2534C5.20544 87.2534 0 92.4588 0 98.88V110.528C0 116.949 5.20544 122.155 11.6267 122.155C18.0479 122.155 23.2533 116.949 23.2533 110.528Z" fill="#7540F0"/>
<path d="M93.056 110.571V75.6267C93.056 69.2054 87.8506 64 81.4293 64C75.0081 64 69.8027 69.2054 69.8027 75.6266V110.571C69.8027 116.992 75.0081 122.197 81.4293 122.197C87.8506 122.197 93.056 116.992 93.056 110.571Z" fill="#7540F0"/>
<path d="M128 110.571V52.3733C128 45.9521 122.795 40.7466 116.373 40.7466C109.952 40.7466 104.747 45.9521 104.747 52.3733V110.571C104.747 116.992 109.952 122.197 116.373 122.197C122.795 122.197 128 116.992 128 110.571Z" fill="#7540F0"/>
</svg>
