<svg width="128" height="128" viewBox="0 0 128 128" fill="none" xmlns="http://www.w3.org/2000/svg">
<g clip-path="url(#clip0_79_3511)">
<path d="M118.869 18.304C118.869 8.23467 110.677 0 100.565 0C90.4534 0 82.2614 8.192 82.2614 18.304C82.2614 25.0453 85.9307 30.976 91.392 34.1333V39.9668C91.392 45.6484 88.182 50.8424 83.1002 53.3832L70.703 59.5818C66.483 61.6918 61.5162 61.6934 57.2949 59.586L44.8655 53.381C39.7791 50.8417 36.5653 45.6453 36.5653 39.9604V34.0907C42.0267 30.9333 45.696 25.0027 45.696 18.2613C45.696 8.192 37.504 0 27.4347 0C17.3653 0 9.13068 8.192 9.13068 18.304C9.13068 25.0453 12.8 30.976 18.2613 34.1333V51.2783C18.2613 56.9574 21.4686 62.1495 26.5469 64.6916L46.5411 74.7004C51.6195 77.2425 54.8267 82.4346 54.8267 88.1137V93.952C49.3653 97.1093 45.696 103.04 45.696 109.781C45.696 119.851 53.888 128.085 64 128.085C74.112 128.085 82.304 119.893 82.304 109.781C82.304 103.04 78.6347 97.1093 73.1734 93.952V88.1137C73.1734 82.4346 76.3806 77.2425 81.4589 74.7004L101.453 64.6916C106.531 62.1495 109.739 56.9574 109.739 51.2783V34.0907C115.157 30.9333 118.869 25.0453 118.869 18.304ZM27.4347 9.13067C32.4693 9.13067 36.5653 13.2267 36.5653 18.2613C36.5653 23.296 32.4693 27.392 27.4347 27.392C22.4 27.392 18.304 23.296 18.304 18.2613C18.304 13.2267 22.4 9.13067 27.4347 9.13067ZM64 118.869C58.9654 118.869 54.8694 114.773 54.8694 109.739C54.8694 104.704 58.9654 100.608 64 100.608C69.0347 100.608 73.1307 104.704 73.1307 109.739C73.1307 114.773 69.0347 118.869 64 118.869ZM100.565 27.4347C95.5307 27.4347 91.4347 23.3387 91.4347 18.304C91.4347 13.2693 95.5307 9.17333 100.565 9.17333C105.6 9.17333 109.696 13.2693 109.696 18.304C109.696 23.3387 105.6 27.4347 100.565 27.4347Z" fill="#7540F0"/>
</g>
<defs>
<clipPath id="clip0_79_3511">
<rect width="128" height="128" fill="white"/>
</clipPath>
</defs>
</svg>
