<svg width="18" height="18" viewBox="0 0 18 18" fill="none" xmlns="http://www.w3.org/2000/svg">
<path fill-rule="evenodd" clip-rule="evenodd" d="M1 11C1.55228 11 2 11.4477 2 12V14C2 15.1046 2.89543 16 4 16H14C15.1046 16 16 15.1046 16 14V12C16 11.4477 16.4477 11 17 11C17.5523 11 18 11.4477 18 12V14C18 16.2091 16.2091 18 14 18H4C1.79086 18 0 16.2091 0 14V12C0 11.4477 0.447715 11 1 11Z" fill="#BBDD00"/>
<path fill-rule="evenodd" clip-rule="evenodd" d="M9 0C9.55228 0 10 0.447715 10 1V10.5858L14.2929 6.29289C14.6834 5.90237 15.3166 5.90237 15.7071 6.29289C16.0976 6.68342 16.0976 7.31658 15.7071 7.70711L9.70711 13.7071C9.31658 14.0976 8.68342 14.0976 8.29289 13.7071L2.29289 7.70711C1.90237 7.31658 1.90237 6.68342 2.29289 6.29289C2.68342 5.90237 3.31658 5.90237 3.70711 6.29289L8 10.5858V1C8 0.447715 8.44772 0 9 0Z" fill="#BBDD00"/>
</svg>
