<svg width="20" height="20" viewBox="0 0 20 20" fill="none" xmlns="http://www.w3.org/2000/svg">
<path d="M11 5C11 4.44772 10.5523 4 10 4C9.44771 4 9 4.44772 9 5V11C9 11.5523 9.44771 12 10 12C10.5523 12 11 11.5523 11 11V5Z" fill="black"/>
<path d="M11 15C11 15.5523 10.5523 16 10 16C9.44771 16 9 15.5523 9 15C9 14.4477 9.44771 14 10 14C10.5523 14 11 14.4477 11 15Z" fill="black"/>
<path fill-rule="evenodd" clip-rule="evenodd" d="M20 10C20 15.5228 15.5228 20 10 20C4.47715 20 0 15.5228 0 10C0 4.47715 4.47715 0 10 0C15.5228 0 20 4.47715 20 10ZM10 18C14.4183 18 18 14.4183 18 10C18 5.58172 14.4183 2 10 2C5.58172 2 2 5.58172 2 10C2 14.4183 5.58172 18 10 18Z" fill="black"/>
</svg>
